<?xml version="1.0" encoding="UTF-8"?>
<svg width="212px" height="79px" viewBox="0 0 212 79" version="1.1" 
    xmlns="http://www.w3.org/2000/svg" 
    xmlns:xlink="http://www.w3.org/1999/xlink">
    <g id="Page-1" stroke="none" stroke-width="1" fill="none" fill-rule="evenodd">
        <g id="vhs_Logo_100black" transform="translate(-7.000000, -43.000000)" fill="#000000">
            <g id="Group" transform="translate(7.000000, 43.000000)">
                <path d="M72.932,24.325 C73.66,24.325 73.729,24.083 73.972,23.39 L79.376,8.044 C79.618,7.316 79.099,7.004 78.371,7.004 L75.115,7.004 C74.387,7.004 74.179,7.42 73.972,8.044 L71.824,14.244 C71.339,15.63 71.096,17.57 71.062,17.847 C71.027,17.535 70.854,15.63 70.438,14.21 L68.567,8.044 C68.394,7.42 68.152,7.004 67.424,7.004 L63.752,7.004 C63.025,7.004 62.505,7.316 62.748,8.044 L67.805,23.39 C68.048,24.083 68.117,24.325 68.845,24.325 L72.932,24.325 Z M80.952,19.198 C80.952,22.489 83.654,24.603 88.885,24.603 C94.115,24.603 96.818,22.489 96.818,19.198 L96.818,12.131 C96.818,8.84 94.115,6.727 88.885,6.727 C83.654,6.727 80.952,8.84 80.952,12.131 L80.952,19.198 Z M91.275,18.713 C91.275,19.891 90.305,20.272 88.885,20.272 C87.464,20.272 86.494,19.891 86.494,18.713 L86.494,12.582 C86.494,11.438 87.464,11.057 88.885,11.057 C90.305,11.057 91.275,11.438 91.275,12.582 L91.275,18.713 Z M105.204,1.15 C105.204,0.422 104.962,0.111 104.234,0.111 L100.666,0.111 C99.939,0.111 99.661,0.422 99.661,1.15 L99.661,23.286 C99.661,24.014 99.939,24.325 100.666,24.325 L104.234,24.325 C104.962,24.325 105.204,24.014 105.204,23.286 L105.204,1.15 Z M118.794,14.487 L123.921,8.044 C124.302,7.559 124.163,7.004 123.436,7.004 L119.591,7.004 C118.863,7.004 118.378,7.524 117.963,8.044 L114.394,12.582 L113.84,12.582 L113.84,1.15 C113.84,0.422 113.598,0.111 112.87,0.111 L109.302,0.111 C108.575,0.111 108.297,0.422 108.297,1.15 L108.297,23.286 C108.297,24.014 108.575,24.325 109.302,24.325 L112.87,24.325 C113.598,24.325 113.84,24.014 113.84,23.286 L113.84,16.739 L114.394,16.739 L118.413,23.286 C118.759,23.806 119.14,24.325 119.868,24.325 L123.713,24.325 C124.441,24.325 124.579,23.806 124.233,23.286 L118.794,14.487 Z M134.77,12.131 C134.77,12.824 135.013,13.101 135.706,13.101 L138.858,13.101 C139.586,13.101 139.828,12.824 139.828,12.131 L139.828,11.646 C139.828,9.36 138.165,6.727 132.9,6.727 C127.634,6.727 125.971,9.36 125.971,11.646 L125.971,12.616 C125.971,14.314 127.426,15.907 128.708,16.392 L133.593,18.263 C134.666,18.679 134.944,18.887 134.944,19.337 L134.944,19.649 C134.944,20.584 133.766,20.757 132.726,20.757 C131.687,20.757 130.544,20.584 130.544,19.649 L130.544,19.164 C130.544,18.506 130.302,18.228 129.609,18.228 L126.422,18.228 C125.729,18.228 125.486,18.506 125.486,19.164 L125.486,19.891 C125.486,22.177 127.426,24.603 132.726,24.603 C138.027,24.603 140.036,22.177 140.036,19.891 L140.036,18.228 C140.036,16.565 138.893,15.318 136.572,14.487 L131.722,12.755 C131.375,12.616 130.994,12.339 130.994,11.82 L130.994,11.646 C130.994,10.711 131.895,10.538 132.865,10.538 C133.835,10.538 134.77,10.711 134.77,11.646 L134.77,12.131 Z M144.608,13.552 C144.297,13.552 144.193,13.656 144.193,13.933 L144.193,14.66 C144.193,14.937 144.297,15.076 144.608,15.076 L167.645,15.076 C167.922,15.076 168.061,14.937 168.061,14.66 L168.061,13.933 C168.061,13.656 167.922,13.552 167.645,13.552 L144.608,13.552 Z" id="Fill-1"></path>
                <path d="M6.339,28.181 C6.339,27.454 6.097,27.142 5.369,27.142 L1.801,27.142 C1.074,27.142 0.796,27.454 0.796,28.181 L0.796,50.317 C0.796,51.045 1.074,51.357 1.801,51.357 L5.369,51.357 C6.097,51.357 6.339,51.045 6.339,50.317 L6.339,39.89 C7.032,39.371 8.452,38.505 9.803,38.505 C10.912,38.505 11.12,38.92 11.12,39.994 L11.12,50.317 C11.12,51.045 11.431,51.357 12.159,51.357 L15.658,51.357 C16.385,51.357 16.662,51.045 16.662,50.317 L16.662,38.574 C16.662,35.768 14.722,33.759 11.57,33.759 C8.972,33.759 7.309,34.729 6.339,35.491 L6.339,28.181 Z M19.396,46.23 C19.396,49.521 22.097,51.634 27.328,51.634 C32.559,51.634 35.261,49.521 35.261,46.23 L35.261,39.163 C35.261,35.872 32.559,33.759 27.328,33.759 C22.097,33.759 19.396,35.872 19.396,39.163 L19.396,46.23 Z M29.719,45.745 C29.719,46.923 28.749,47.304 27.328,47.304 C25.908,47.304 24.938,46.923 24.938,45.745 L24.938,39.613 C24.938,38.47 25.908,38.089 27.328,38.089 C28.749,38.089 29.719,38.47 29.719,39.613 L29.719,45.745 Z M45.356,33.759 C40.125,33.759 37.839,35.872 37.839,39.163 L37.839,46.23 C37.839,49.521 40.09,51.634 45.321,51.634 C50.552,51.634 52.839,49.521 52.839,46.23 L52.839,45.364 C52.839,44.636 52.561,44.359 51.834,44.359 L48.543,44.359 C47.815,44.359 47.538,44.636 47.538,45.364 L47.538,45.779 C47.538,46.923 46.915,47.304 45.46,47.304 C44.005,47.304 43.381,46.923 43.381,45.779 L43.381,39.578 C43.381,38.435 44.005,38.089 45.46,38.089 C46.915,38.089 47.538,38.435 47.538,39.578 L47.538,39.682 C47.538,40.41 47.815,40.687 48.543,40.687 L51.834,40.687 C52.561,40.687 52.839,40.41 52.839,39.682 L52.839,39.163 C52.839,35.872 50.587,33.759 45.356,33.759 Z M60.875,28.181 C60.875,27.454 60.632,27.142 59.905,27.142 L56.337,27.142 C55.609,27.142 55.332,27.454 55.332,28.181 L55.332,50.317 C55.332,51.045 55.609,51.357 56.337,51.357 L59.905,51.357 C60.632,51.357 60.875,51.045 60.875,50.317 L60.875,39.89 C61.568,39.371 62.988,38.505 64.339,38.505 C65.448,38.505 65.656,38.92 65.656,39.994 L65.656,50.317 C65.656,51.045 65.967,51.357 66.695,51.357 L70.194,51.357 C70.921,51.357 71.198,51.045 71.198,50.317 L71.198,38.574 C71.198,35.768 69.258,33.759 66.106,33.759 C63.508,33.759 61.845,34.729 60.875,35.491 L60.875,28.181 Z M82.976,39.163 C82.976,39.856 83.219,40.133 83.912,40.133 L87.064,40.133 C87.791,40.133 88.034,39.856 88.034,39.163 L88.034,38.678 C88.034,36.391 86.371,33.759 81.106,33.759 C75.84,33.759 74.177,36.391 74.177,38.678 L74.177,39.648 C74.177,41.345 75.632,42.939 76.914,43.424 L81.798,45.294 C82.872,45.71 83.149,45.918 83.149,46.368 L83.149,46.68 C83.149,47.615 81.972,47.789 80.932,47.789 C79.893,47.789 78.75,47.615 78.75,46.68 L78.75,46.195 C78.75,45.537 78.507,45.26 77.815,45.26 L74.628,45.26 C73.935,45.26 73.692,45.537 73.692,46.195 L73.692,46.923 C73.692,49.209 75.632,51.634 80.932,51.634 C86.233,51.634 88.242,49.209 88.242,46.923 L88.242,45.26 C88.242,43.597 87.099,42.35 84.778,41.518 L79.928,39.786 C79.581,39.648 79.2,39.371 79.2,38.851 L79.2,38.678 C79.2,37.742 80.101,37.569 81.071,37.569 C82.041,37.569 82.976,37.742 82.976,38.678 L82.976,39.163 Z M98.083,33.759 C92.852,33.759 90.566,35.872 90.566,39.163 L90.566,46.23 C90.566,49.521 92.818,51.634 98.049,51.634 C103.28,51.634 105.566,49.521 105.566,46.23 L105.566,45.364 C105.566,44.636 105.289,44.359 104.561,44.359 L101.27,44.359 C100.543,44.359 100.266,44.636 100.266,45.364 L100.266,45.779 C100.266,46.923 99.642,47.304 98.187,47.304 C96.732,47.304 96.109,46.923 96.109,45.779 L96.109,39.578 C96.109,38.435 96.732,38.089 98.187,38.089 C99.642,38.089 100.266,38.435 100.266,39.578 L100.266,39.682 C100.266,40.41 100.543,40.687 101.27,40.687 L104.561,40.687 C105.289,40.687 105.566,40.41 105.566,39.682 L105.566,39.163 C105.566,35.872 103.314,33.759 98.083,33.759 Z M113.602,28.181 C113.602,27.454 113.36,27.142 112.632,27.142 L109.064,27.142 C108.337,27.142 108.06,27.454 108.06,28.181 L108.06,50.317 C108.06,51.045 108.337,51.357 109.064,51.357 L112.632,51.357 C113.36,51.357 113.602,51.045 113.602,50.317 L113.602,39.89 C114.295,39.371 115.716,38.505 117.067,38.505 C118.175,38.505 118.383,38.92 118.383,39.994 L118.383,50.317 C118.383,51.045 118.695,51.357 119.422,51.357 L122.921,51.357 C123.649,51.357 123.926,51.045 123.926,50.317 L123.926,38.574 C123.926,35.768 121.986,33.759 118.833,33.759 C116.235,33.759 114.572,34.729 113.602,35.491 L113.602,28.181 Z M137.145,50.352 C137.249,51.08 137.422,51.357 138.149,51.357 L141.475,51.357 C142.203,51.357 142.48,51.08 142.48,50.352 L142.48,35.075 C142.48,34.347 142.203,34.036 141.475,34.036 L137.907,34.036 C137.179,34.036 136.937,34.347 136.937,35.075 L136.937,45.537 C136.279,46.056 134.997,46.888 133.681,46.888 C132.572,46.888 132.364,46.472 132.364,45.398 L132.364,35.075 C132.364,34.347 132.052,34.036 131.325,34.036 L127.826,34.036 C127.099,34.036 126.822,34.347 126.822,35.075 L126.822,46.819 C126.822,49.625 128.761,51.634 131.914,51.634 C134.616,51.634 136.175,50.56 137.076,49.798 L137.145,50.352 Z M151.15,28.181 C151.15,27.454 150.908,27.142 150.18,27.142 L146.612,27.142 C145.885,27.142 145.608,27.454 145.608,28.181 L145.608,50.317 C145.608,51.045 145.885,51.357 146.612,51.357 L150.18,51.357 C150.908,51.357 151.15,51.045 151.15,50.317 L151.15,28.181 Z M168.745,39.163 C168.745,35.872 166.701,33.759 161.47,33.759 C156.239,33.759 153.987,35.872 153.987,39.163 L153.987,46.23 C153.987,49.521 156.239,51.634 161.47,51.634 C166.701,51.634 168.572,49.521 168.572,46.23 L168.572,45.987 C168.572,45.26 168.295,44.983 167.567,44.983 L164.588,44.983 C163.86,44.983 163.583,45.26 163.583,45.987 L163.583,46.022 C163.583,47.061 162.925,47.546 161.47,47.546 C160.015,47.546 159.392,47.061 159.392,46.022 L159.392,43.943 L167.81,43.943 C168.468,43.943 168.745,43.666 168.745,43.008 L168.745,39.163 Z M159.392,39.405 C159.392,38.366 160.015,37.846 161.47,37.846 C162.925,37.846 163.583,38.366 163.583,39.405 L163.583,40.41 L159.392,40.41 L159.392,39.405 Z" id="Fill-2"></path>
                <path d="M67.781,78.632 C68.026,78.632 68.149,78.51 68.149,78.264 L68.18,77.006 C69.07,77.712 70.881,78.878 73.52,78.878 C76.436,78.878 77.724,77.343 77.724,75.103 L77.724,67.031 C77.724,64.791 76.436,63.256 73.52,63.256 C70.881,63.256 69.131,64.423 68.241,65.129 L68.241,57.548 C68.241,57.302 68.118,57.18 67.873,57.18 L67.013,57.18 C66.737,57.18 66.645,57.302 66.645,57.548 L66.645,78.264 C66.645,78.51 66.737,78.632 67.013,78.632 L67.781,78.632 Z M76.159,74.888 C76.159,76.3 75.3,77.435 73.152,77.435 C70.635,77.435 68.916,76.146 68.241,75.625 L68.241,66.571 C68.916,65.988 70.635,64.73 73.152,64.73 C75.3,64.73 76.159,65.834 76.159,67.246 L76.159,74.888 Z M92.879,67.062 C92.879,64.822 91.59,63.256 87.478,63.256 C83.334,63.256 82.015,64.822 82.015,67.062 L82.015,75.103 C82.015,77.313 83.304,78.878 87.447,78.878 C91.59,78.878 92.879,77.313 92.879,75.103 L92.879,74.366 C92.879,74.121 92.756,73.998 92.511,73.998 L91.713,73.998 C91.467,73.998 91.375,74.121 91.375,74.366 L91.375,75.011 C91.375,76.515 90.547,77.558 87.478,77.558 C84.409,77.558 83.58,76.515 83.58,75.011 L83.58,71.205 L92.542,71.205 C92.756,71.205 92.879,71.082 92.879,70.868 L92.879,67.062 Z M83.58,67.123 C83.58,65.65 84.439,64.576 87.478,64.576 C90.485,64.576 91.375,65.65 91.375,67.123 L91.375,69.978 L83.58,69.978 L83.58,67.123 Z M98.778,63.901 C98.778,63.625 98.655,63.502 98.409,63.502 L97.55,63.502 C97.274,63.502 97.182,63.625 97.182,63.901 L97.182,78.264 C97.182,78.51 97.274,78.632 97.55,78.632 L98.409,78.632 C98.655,78.632 98.778,78.51 98.778,78.264 L98.778,63.901 Z M98.778,57.548 C98.778,57.302 98.655,57.18 98.409,57.18 L97.55,57.18 C97.274,57.18 97.182,57.302 97.182,57.548 L97.182,60.464 C97.182,60.709 97.274,60.832 97.55,60.832 L98.409,60.832 C98.655,60.832 98.778,60.709 98.778,60.464 L98.778,57.548 Z M112.828,78.264 C112.828,78.51 112.92,78.632 113.196,78.632 L113.963,78.632 C114.239,78.632 114.331,78.51 114.331,78.264 L114.331,57.548 C114.331,57.302 114.239,57.18 113.963,57.18 L113.073,57.18 C112.828,57.18 112.735,57.302 112.735,57.548 L112.735,65.129 C111.815,64.423 110.035,63.256 107.426,63.256 C104.51,63.256 103.221,64.791 103.221,67.031 L103.221,75.103 C103.221,77.343 104.51,78.878 107.426,78.878 C110.065,78.878 111.876,77.712 112.766,77.006 L112.828,78.264 Z M104.817,67.246 C104.817,65.834 105.677,64.73 107.825,64.73 C110.28,64.73 112.03,65.988 112.735,66.571 L112.735,75.625 C112.03,76.146 110.28,77.435 107.825,77.435 C105.677,77.435 104.817,76.3 104.817,74.888 L104.817,67.246 Z M129.686,67.062 C129.686,64.822 128.397,63.256 124.284,63.256 C120.141,63.256 118.821,64.822 118.821,67.062 L118.821,75.103 C118.821,77.313 120.11,78.878 124.253,78.878 C128.397,78.878 129.686,77.313 129.686,75.103 L129.686,74.366 C129.686,74.121 129.563,73.998 129.317,73.998 L128.519,73.998 C128.274,73.998 128.182,74.121 128.182,74.366 L128.182,75.011 C128.182,76.515 127.353,77.558 124.284,77.558 C121.215,77.558 120.386,76.515 120.386,75.011 L120.386,71.205 L129.348,71.205 C129.563,71.205 129.686,71.082 129.686,70.868 L129.686,67.062 Z M120.386,67.123 C120.386,65.65 121.246,64.576 124.284,64.576 C127.292,64.576 128.182,65.65 128.182,67.123 L128.182,69.978 L120.386,69.978 L120.386,67.123 Z M140.74,63.287 C138.438,63.287 136.443,64.73 135.553,65.528 L135.492,63.87 C135.492,63.625 135.369,63.502 135.124,63.502 L134.356,63.502 C134.08,63.502 133.988,63.625 133.988,63.87 L133.988,78.264 C133.988,78.51 134.08,78.632 134.356,78.632 L135.216,78.632 C135.461,78.632 135.584,78.51 135.584,78.264 L135.584,66.878 C136.321,66.233 138.407,64.822 140.74,64.73 C140.985,64.73 141.139,64.637 141.139,64.361 L141.139,63.625 C141.139,63.379 140.985,63.287 140.74,63.287 Z M150.517,78.632 C150.762,78.632 150.885,78.51 150.885,78.264 L150.916,77.006 C151.806,77.712 153.617,78.878 156.256,78.878 C159.171,78.878 160.46,77.343 160.46,75.103 L160.46,67.031 C160.46,64.791 159.171,63.256 156.256,63.256 C153.617,63.256 151.867,64.423 150.977,65.129 L150.977,57.548 C150.977,57.302 150.854,57.18 150.609,57.18 L149.749,57.18 C149.473,57.18 149.381,57.302 149.381,57.548 L149.381,78.264 C149.381,78.51 149.473,78.632 149.749,78.632 L150.517,78.632 Z M158.895,74.888 C158.895,76.3 158.036,77.435 155.888,77.435 C153.371,77.435 151.652,76.146 150.977,75.625 L150.977,66.571 C151.652,65.988 153.371,64.73 155.888,64.73 C158.036,64.73 158.895,65.834 158.895,67.246 L158.895,74.888 Z M164.923,67.584 C164.923,67.86 165.015,67.952 165.26,67.952 L166.058,67.952 C166.304,67.952 166.426,67.86 166.426,67.584 L166.426,67.123 C166.426,65.62 167.224,64.576 170.232,64.576 C173.27,64.576 174.038,65.681 174.038,67.154 L174.038,70.193 L168.483,70.193 C165.935,70.193 164.646,71.758 164.646,73.753 L164.646,75.318 C164.646,77.313 165.997,78.878 168.851,78.878 C171.398,78.878 173.178,77.742 174.068,77.036 L174.13,78.264 C174.13,78.51 174.222,78.632 174.498,78.632 L175.265,78.632 C175.511,78.632 175.603,78.51 175.603,78.264 L175.603,67.031 C175.603,64.822 174.375,63.256 170.263,63.256 C166.181,63.256 164.923,64.822 164.923,67.031 L164.923,67.584 Z M169.189,77.528 C167.132,77.528 166.212,76.576 166.212,75.134 L166.212,73.937 C166.212,72.464 166.979,71.482 168.759,71.482 L174.038,71.482 L174.038,75.717 C173.332,76.269 171.613,77.528 169.189,77.528 Z M188.843,67.553 C188.843,67.799 188.966,67.891 189.18,67.891 L189.978,67.891 C190.255,67.891 190.347,67.799 190.347,67.553 L190.347,66.602 C190.347,64.791 188.904,63.256 185.16,63.256 C181.385,63.256 179.973,64.791 179.973,66.602 L179.973,67.829 C179.973,69.364 181.324,70.407 182.367,70.745 L187.155,72.249 C188.198,72.586 189.088,73.108 189.088,74.121 L189.088,75.502 C189.088,76.791 187.769,77.65 185.129,77.65 C182.52,77.65 181.231,76.791 181.231,75.502 L181.231,74.704 C181.231,74.489 181.139,74.366 180.925,74.366 L180.096,74.366 C179.85,74.366 179.758,74.489 179.758,74.704 L179.758,75.563 C179.758,77.374 181.324,78.878 185.129,78.878 C188.935,78.878 190.561,77.374 190.561,75.563 L190.561,73.753 C190.561,72.341 189.426,71.42 187.983,70.96 L183.196,69.456 C182.459,69.241 181.477,68.597 181.477,67.553 L181.477,66.602 C181.477,65.313 182.582,64.484 185.129,64.484 C187.707,64.484 188.843,65.313 188.843,66.602 L188.843,67.553 Z M205.369,67.062 C205.369,64.822 204.08,63.256 199.968,63.256 C195.825,63.256 194.505,64.822 194.505,67.062 L194.505,75.103 C194.505,77.313 195.794,78.878 199.937,78.878 C204.08,78.878 205.369,77.313 205.369,75.103 L205.369,74.366 C205.369,74.121 205.247,73.998 205.001,73.998 L204.203,73.998 C203.958,73.998 203.865,74.121 203.865,74.366 L203.865,75.011 C203.865,76.515 203.037,77.558 199.968,77.558 C196.899,77.558 196.07,76.515 196.07,75.011 L196.07,71.205 L205.032,71.205 C205.247,71.205 205.369,71.082 205.369,70.868 L205.369,67.062 Z M196.07,67.123 C196.07,65.65 196.929,64.576 199.968,64.576 C202.975,64.576 203.865,65.65 203.865,67.123 L203.865,69.978 L196.07,69.978 L196.07,67.123 Z M211.268,57.548 C211.268,57.302 211.145,57.18 210.899,57.18 L210.04,57.18 C209.764,57.18 209.672,57.302 209.672,57.548 L209.672,78.264 C209.672,78.51 209.764,78.632 210.04,78.632 L210.899,78.632 C211.145,78.632 211.268,78.51 211.268,78.264 L211.268,57.548 Z" id="Fill-3"></path>
            </g>
        </g>
    </g>
</svg>